<svg width="1080" height="1004" viewBox="0 0 1080 1004" fill="none" xmlns="http://www.w3.org/2000/svg">
<path d="M1074.89 428.628C1065.83 366.536 1045.15 306.705 1013.96 252.26C984.741 200.954 946.8 155.136 901.84 116.868C880.745 98.919 858.245 82.6903 834.556 68.338C811.276 54.233 786.953 41.9255 761.799 31.5228L781.889 0L666.28 28.8767L704.816 120.748L730.019 81.2092C751.005 90.5956 771.226 101.608 790.496 114.145C809.968 126.801 828.365 141.039 845.5 156.715C881.591 189.729 911.555 228.869 934.005 272.324C956.907 316.586 971.386 364.717 976.704 414.267C982.249 466.652 977.75 519.615 963.447 570.314C947.949 625.359 921.759 676.813 886.374 721.737C847.687 770.936 799.248 811.608 744.098 841.2L684.957 646.436C690.429 644.304 695.696 642.12 700.757 639.937C705.818 637.753 710.648 635.492 715.272 633.231C719.897 630.97 724.29 628.71 728.452 626.423C732.614 624.137 736.596 621.824 740.321 619.487C748.495 614.442 756.229 608.718 763.443 602.376C770.411 596.303 776.817 589.614 782.583 582.389C788.235 575.289 793.239 567.697 797.535 559.704C801.852 551.617 805.47 543.177 808.351 534.475C811.223 525.819 813.253 516.905 814.414 507.859C815.563 498.899 815.864 489.85 815.313 480.832C814.738 471.61 813.363 462.455 811.203 453.471C808.929 444.077 805.941 434.869 802.262 425.931C796.344 410.9 788.269 396.811 778.292 384.106C769.032 372.375 757.946 362.209 745.459 353.996C732.583 345.658 718.575 339.212 703.866 334.856C687.428 330.016 670.507 327.001 653.409 325.864C663.677 318.538 672.944 309.901 680.975 300.173C687.779 291.853 693.066 282.4 696.595 272.247C699.826 262.697 701.195 252.615 700.629 242.549C699.952 231.842 697.567 221.313 693.564 211.36C691.45 205.922 688.934 200.649 686.036 195.585C683.253 190.68 680.092 185.999 676.582 181.584C673.101 177.211 669.296 173.106 665.201 169.304C661.026 165.477 656.588 161.948 651.919 158.745L649.35 156.895L646.421 154.968C645.496 154.377 644.545 153.786 643.569 153.221C642.593 152.656 641.642 152.091 640.666 151.525C634.69 148.18 628.502 145.228 622.143 142.688C616.088 140.281 609.873 138.298 603.542 136.753C591.16 133.789 578.413 132.638 565.7 133.336C563.131 133.336 560.562 133.696 557.735 133.953C554.909 134.21 552.083 134.518 549.078 134.878C546.072 135.237 542.938 135.648 539.675 136.111C536.412 136.573 533.098 137.087 529.63 137.627L510.259 73.9643L453.353 88.1971L469.77 150.061H469.41L465.608 150.986L461.754 151.911L457.849 152.861L453.893 153.863L417.591 162.932L383.037 14.8751C378.567 16.2624 374.139 17.7011 369.755 19.1912C365.336 20.6812 360.968 22.2227 356.601 23.8155C352.233 25.4084 347.917 27.0526 343.627 28.7482C339.336 30.4438 335.02 32.1908 330.781 33.8864C291.451 50.508 254.175 71.6206 219.694 96.8036C184.066 122.735 151.701 152.875 123.301 186.568C105.282 207.884 88.9615 230.578 74.4882 254.443C59.7586 278.756 47.042 304.232 36.4655 330.617C2.37074 415.638 -8.07809 508.301 6.22724 598.78C16.4699 663.046 39.338 724.647 73.5119 780.029C91.9738 810.001 113.498 837.975 137.739 863.5L91.6497 932.043L262.238 888.831L245.205 703.213L201.247 768.725C181.426 749.05 163.635 727.429 148.144 704.19C119.195 660.781 99.0012 612.137 88.6953 560.988C83.7771 536.534 81.1026 511.682 80.7054 486.741C79.9512 441.311 86.669 396.066 100.59 352.814C113.495 312.769 132.2 274.831 156.108 240.211C179.157 206.779 206.621 176.619 237.754 150.549C269.008 124.376 303.557 102.412 340.518 85.217L358.271 177.884L231.845 209.51L239.835 281.445L302.29 265.799L354.571 617.2L279.271 636.186L292.116 751.384L460.058 708.943L483.437 830.975L566.547 809.934L538.724 689.058L586.92 676.88L592.187 675.544L597.325 674.183L602.464 672.821L607.756 671.434L661.964 876.062L695.696 1003.36L696.081 1003.23C703.789 1000.92 711.188 998.429 718.612 995.808C726.037 993.188 733.359 990.413 740.604 987.51C747.849 984.607 754.991 981.524 762.056 978.338C769.121 975.152 776.057 971.813 782.943 968.37C854.696 932.732 917.726 881.736 967.558 819.003C1012.77 762.085 1045.58 696.338 1063.87 625.986C1080.63 561.587 1084.37 494.493 1074.89 428.628ZM458.311 336.141L434.444 232.735L467.2 224.539C474.565 222.689 481.416 221.199 487.753 220.069C494.09 218.939 499.974 218.159 505.403 217.731C510.299 217.317 515.219 217.257 520.124 217.551C524.13 217.76 528.102 218.407 531.967 219.478C535.368 220.45 538.618 221.885 541.627 223.743C544.604 225.637 547.301 227.937 549.643 230.577C552.166 233.428 554.331 236.577 556.091 239.954C558.086 243.805 559.703 247.84 560.921 252.003C562.342 256.542 563.34 261.204 563.901 265.927C564.404 270.083 564.404 274.283 563.901 278.439C563.409 282.231 562.352 285.929 560.767 289.409C559.179 292.836 557.073 295.999 554.524 298.786C551.687 301.811 548.535 304.523 545.121 306.879C541.117 309.642 536.899 312.081 532.507 314.175C527.373 316.644 522.097 318.806 516.707 320.649C510.901 322.653 504.581 324.528 497.747 326.224L458.311 336.141ZM649.247 498.533C648.899 503.803 647.792 508.995 645.958 513.948C644.218 518.593 641.746 522.929 638.636 526.793C635.151 531.067 631.107 534.851 626.613 538.046C621.164 541.988 615.368 545.427 609.297 548.323C601.933 551.877 594.357 554.974 586.612 557.597C578.185 560.526 568.877 563.266 558.686 565.818L513.907 577.122L478.196 422.308L519.533 412.032C528.319 409.822 536.6 408.11 544.376 406.894C551.604 405.707 558.896 404.952 566.214 404.633C572.54 404.342 578.881 404.557 585.173 405.275C590.659 405.905 596.06 407.129 601.282 408.923C606.115 410.624 610.682 413.003 614.846 415.988C619.194 419.134 623.107 422.84 626.484 427.01C630.261 431.682 633.526 436.747 636.221 442.116C642.289 454.432 646.447 467.599 648.553 481.166C649.402 486.897 649.618 492.704 649.195 498.482L649.247 498.533Z" fill="url(#paint0_linear_85_5650)"/>
<defs>
<linearGradient id="paint0_linear_85_5650" x1="918.334" y1="131.05" x2="104.495" y2="944.888" gradientUnits="userSpaceOnUse">
<stop stop-color="#68C2C4"/>
<stop offset="1" stop-color="#239EDA"/>
</linearGradient>
</defs>
</svg>
