<svg width="1080" height="374" viewBox="0 0 1080 374" fill="none" xmlns="http://www.w3.org/2000/svg">
<path d="M393.838 124.599H445.536C454.098 124.599 461.024 125.755 466.313 128.067C471.006 129.965 475.211 132.895 478.616 136.64C481.392 139.793 483.402 143.544 484.49 147.601C485.444 151.084 485.955 154.674 486.011 158.285C486.066 161.919 485.398 165.528 484.048 168.902C482.806 171.94 481.058 174.745 478.878 177.197C476.847 179.48 474.474 181.433 471.843 182.988C469.48 184.394 466.922 185.442 464.252 186.097C466.67 186.204 469.033 186.847 471.172 187.978C473.95 189.333 476.482 191.141 478.665 193.328C481.195 195.864 483.221 198.856 484.637 202.146C486.303 206.03 487.123 210.224 487.042 214.449C486.97 218.131 486.42 221.788 485.406 225.329C484.258 229.546 482.191 233.457 479.353 236.781C475.925 240.685 471.657 243.762 466.87 245.779C461.514 248.222 454.561 249.443 446.01 249.443H393.838V124.599ZM439.843 175.414C442.79 175.524 445.729 175.034 448.481 173.974C450.485 173.163 452.285 171.917 453.749 170.326C455.004 168.917 455.916 167.237 456.416 165.418C456.864 163.819 457.106 162.17 457.135 160.51C457.116 158.946 456.902 157.39 456.497 155.88C456.044 154.133 455.193 152.515 454.011 151.152C452.561 149.52 450.76 148.239 448.743 147.405C445.91 146.3 442.881 145.788 439.843 145.9H422.55V175.495L439.843 175.414ZM422.55 196.682V227.357H440.546C443.499 227.468 446.443 226.978 449.201 225.918C451.2 225.107 452.994 223.86 454.452 222.269C455.712 220.861 456.63 219.181 457.135 217.361C457.594 215.615 457.831 213.817 457.839 212.011C457.805 210.385 457.568 208.769 457.135 207.202C456.62 205.405 455.74 203.735 454.55 202.293C453.105 200.613 451.306 199.272 449.283 198.367C446.585 197.201 443.664 196.643 440.726 196.731L422.55 196.682Z" fill="#203645"/>
<path d="M537.809 124.599H567.044V249.394H537.809V124.599Z" fill="#203645"/>
<path d="M685.36 124.599H717.262L680.19 186.997L717.262 249.394H685.36L663.601 209.279L641.858 249.394H610.119L647.208 186.997L610.119 124.599H641.858L663.601 164.894L685.36 124.599Z" fill="#203645"/>
<path d="M818.008 249.394C808.925 249.538 799.914 247.777 791.553 244.225C784.079 241.001 777.335 236.298 771.725 230.4C766.304 224.654 762.092 217.878 759.34 210.474C753.691 195.326 753.691 178.651 759.34 163.503C762.097 156.106 766.308 149.336 771.725 143.593C777.33 137.69 784.076 132.987 791.553 129.769C808.488 122.875 827.446 122.875 844.38 129.769C851.822 133.009 858.537 137.71 864.127 143.593C869.544 149.336 873.755 156.106 876.512 163.503C882.161 178.651 882.161 195.326 876.512 210.474C873.76 217.878 869.548 224.654 864.127 230.4C858.532 236.278 851.818 240.979 844.38 244.225C836.05 247.782 827.064 249.543 818.008 249.394ZM818.008 224.641C823.044 224.73 828.032 223.655 832.585 221.5C836.773 219.488 840.5 216.63 843.53 213.107C846.55 209.56 848.876 205.475 850.385 201.066C853.569 191.957 853.569 182.036 850.385 172.927C848.879 168.517 846.553 164.431 843.53 160.886C840.5 157.363 836.773 154.505 832.585 152.493C828.004 150.422 823.035 149.351 818.008 149.351C812.981 149.351 808.012 150.422 803.431 152.493C799.24 154.501 795.513 157.36 792.486 160.886C789.463 164.435 787.133 168.519 785.615 172.927C782.452 182.04 782.452 191.953 785.615 201.066C787.136 205.473 789.466 209.556 792.486 213.107C795.513 216.634 799.24 219.492 803.431 221.5C807.983 223.655 812.972 224.73 818.008 224.641Z" fill="#203645"/>
<path d="M955.909 207.005C955.909 213.451 957.66 218.479 961.161 222.089C962.947 223.902 965.092 225.321 967.458 226.256C969.825 227.191 972.361 227.622 974.903 227.521C978.942 227.645 982.886 226.289 985.995 223.709C987.462 222.478 988.63 220.93 989.409 219.181C990.189 217.432 990.56 215.528 990.494 213.615C990.565 211.515 990.067 209.435 989.055 207.594C988.052 205.914 986.729 204.446 985.161 203.275C983.351 201.947 981.384 200.849 979.304 200.003C977.046 199.032 974.614 198.04 972.007 197.025C966.554 194.997 961.384 192.963 956.498 190.923C951.909 189.075 947.602 186.592 943.704 183.545C939.811 180.57 936.696 176.695 934.627 172.253C932.559 167.811 931.598 162.934 931.827 158.039C931.726 153.015 932.926 148.049 935.312 143.626C937.579 139.485 940.729 135.894 944.539 133.106C948.555 130.199 953.068 128.048 957.856 126.759C962.962 125.327 968.242 124.611 973.545 124.632C979.833 124.481 986.094 125.491 992.016 127.609C996.966 129.405 1001.48 132.232 1005.25 135.904C1008.69 139.327 1011.37 143.428 1013.14 147.945C1014.9 152.545 1015.79 157.433 1015.75 162.358H988.286C988.286 157.041 987.026 152.869 984.474 149.81C983.123 148.263 981.436 147.045 979.541 146.251C977.647 145.457 975.596 145.107 973.545 145.229C969.913 145.133 966.346 146.205 963.369 148.289C961.953 149.339 960.822 150.728 960.082 152.329C959.342 153.93 959.015 155.691 959.132 157.45C959.076 159.281 959.472 161.097 960.286 162.737C961.099 164.378 962.304 165.793 963.795 166.857C967.564 169.511 971.704 171.595 976.081 173.041C980.945 174.743 985.854 176.581 990.805 178.555C995.558 180.412 1000.06 182.858 1004.2 185.835C1008.1 188.674 1011.41 192.248 1013.94 196.355C1016.6 200.896 1017.93 206.096 1017.77 211.357C1017.88 216.957 1016.77 222.515 1014.49 227.635C1012.38 232.276 1009.22 236.368 1005.27 239.595C1001.1 242.922 996.32 245.395 991.198 246.875C985.354 248.584 979.29 249.416 973.202 249.345C967.168 249.416 961.165 248.488 955.435 246.597C950.177 244.869 945.328 242.086 941.185 238.417C937.115 234.723 933.904 230.183 931.778 225.116C929.44 219.409 928.288 213.286 928.391 207.12L955.909 207.005Z" fill="#203645"/>
<path d="M329.576 168.821C327.324 153.379 322.184 138.499 314.427 124.959C303.698 106.135 288.335 90.3658 269.796 79.1505C264.003 75.6471 257.955 72.5845 251.702 69.9888L256.692 62.1686L227.931 69.3508L237.551 92.255L243.816 82.4389C249.038 84.7712 254.07 87.5061 258.868 90.619C263.708 93.7687 268.282 97.3088 272.545 101.204C281.525 109.416 288.981 119.153 294.566 129.965C300.267 140.961 303.867 152.922 305.183 165.238C306.575 178.263 305.465 191.435 301.911 204.044C298.053 217.721 291.544 230.506 282.754 241.672C273.13 253.917 261.076 264.038 247.35 271.399L232.626 222.956C233.979 222.411 235.287 221.866 236.553 221.32C237.812 220.764 239.023 220.208 240.168 219.684C241.313 219.161 242.41 218.555 243.44 218.048C244.471 217.541 245.452 216.903 246.385 216.412C248.423 215.154 250.354 213.732 252.16 212.159C253.883 210.665 255.47 209.023 256.905 207.251C259.731 203.688 261.897 199.649 263.301 195.324C264.011 193.195 264.52 191.004 264.823 188.78C265.098 186.55 265.17 184.299 265.036 182.056C264.896 179.762 264.556 177.485 264.021 175.25C263.462 172.912 262.723 170.62 261.813 168.395C260.341 164.654 258.329 161.149 255.841 157.99C253.532 155.081 250.77 152.563 247.661 150.53C244.441 148.388 240.924 146.729 237.223 145.605C233.134 144.405 228.927 143.653 224.675 143.364C227.229 141.534 229.534 139.378 231.53 136.951C233.225 134.888 234.538 132.539 235.407 130.014C236.219 127.638 236.563 125.127 236.422 122.619C236.257 119.956 235.66 117.337 234.655 114.865C234.126 113.514 233.503 112.202 232.79 110.938C232.092 109.72 231.305 108.555 230.434 107.454C229.568 106.37 228.622 105.352 227.604 104.411C226.578 103.445 225.485 102.553 224.331 101.744L223.661 101.286L222.974 100.828C222.745 100.68 222.516 100.533 222.27 100.402L221.55 99.977C220.062 99.1469 218.521 98.4146 216.937 97.7847C215.434 97.1734 213.886 96.6811 212.307 96.3123C210.768 95.9368 209.205 95.6743 207.628 95.527C206.055 95.3932 204.476 95.3658 202.9 95.4452L200.92 95.6088C200.233 95.6088 199.513 95.7397 198.761 95.8379C198.008 95.936 197.239 96.0342 196.421 96.1487C195.603 96.2632 194.785 96.3777 193.918 96.525L189.01 80.6883L175.055 84.1403L179.128 99.5353L178.179 99.7643L177.231 99.9933L176.249 100.222L175.267 100.468L166.237 102.725L157.484 65.9151C156.371 66.275 155.275 66.6186 154.212 66.9949L150.94 68.1401L147.668 69.3671L144.396 70.6759C139.528 72.7335 134.782 75.0659 130.179 77.6617C115.993 85.6639 103.359 96.148 92.8776 108.615C83.8058 119.324 76.5143 131.421 71.2822 144.444C68.5618 151.239 66.4325 158.256 64.9181 165.418C61.7454 180.489 61.3517 196.013 63.7565 211.226C66.2845 227.213 71.9622 242.539 80.4602 256.315C85.0797 263.749 90.4642 270.68 96.5259 276.994L85.0738 294.041L127.496 283.293L123.193 237.124L112.264 253.484C107.335 248.588 102.907 243.212 99.0454 237.435C95.3988 231.943 92.2974 226.107 89.7855 220.012C87.3716 214.137 85.5254 208.045 84.2721 201.819C83.0345 195.699 82.3664 189.477 82.2762 183.234C82.0798 171.932 83.7378 160.674 87.1842 149.908C90.4054 139.952 95.0567 130.517 100.992 121.9C106.749 113.605 113.594 106.121 121.344 99.6498C129.121 93.1489 137.718 87.6979 146.915 83.4369L151.332 106.488L119.872 114.325L121.868 132.207L137.426 128.313L150.514 215.725L131.782 220.453L135.054 249.1L176.691 238.548L182.499 268.912L203.178 263.66L196.257 233.607L208.233 230.58L209.542 230.237L210.851 229.909L212.143 229.566L213.452 229.222L226.949 280.119L235.342 311.792H235.424C237.305 311.219 239.17 310.598 241.019 309.943C242.868 309.289 244.684 308.602 246.483 307.882C248.283 307.162 250.066 306.393 251.817 305.592C253.567 304.79 255.301 303.956 257.019 303.121C274.871 294.247 290.55 281.551 302.942 265.935C314.191 251.777 322.35 235.42 326.893 217.917C331.047 201.894 331.959 185.202 329.576 168.821ZM176.2 145.802L170.261 120.084L178.441 118.039C180.274 117.581 181.975 117.221 183.562 116.926C185.149 116.632 186.605 116.452 187.946 116.354C189.166 116.257 190.392 116.257 191.611 116.354C192.607 116.403 193.595 116.562 194.556 116.828C195.401 117.075 196.21 117.432 196.961 117.891C197.699 118.342 198.37 118.892 198.957 119.527C199.595 120.238 200.144 121.024 200.593 121.867C201.092 122.824 201.497 123.826 201.804 124.861C202.147 125.994 202.393 127.154 202.54 128.329C202.663 129.362 202.663 130.405 202.54 131.438C202.415 132.382 202.151 133.303 201.754 134.17C201.366 135.02 200.847 135.803 200.217 136.493C199.505 137.245 198.715 137.92 197.861 138.505C196.853 139.199 195.792 139.812 194.687 140.338C193.409 140.966 192.092 141.513 190.744 141.974C189.304 142.481 187.734 142.939 186.032 143.364L176.2 145.802ZM223.644 186.195C223.55 187.497 223.274 188.78 222.826 190.007C222.401 191.192 221.782 192.298 220.994 193.279C220.131 194.345 219.13 195.291 218.016 196.093C216.649 197.06 215.204 197.914 213.697 198.645C211.865 199.529 209.98 200.299 208.053 200.952C205.959 201.672 203.652 202.359 201.116 202.997L189.975 205.811L181.092 167.299L191.366 164.714C193.558 164.158 195.619 163.733 197.55 163.422C199.348 163.127 201.161 162.942 202.981 162.865C204.554 162.793 206.13 162.847 207.693 163.029C209.058 163.185 210.401 163.487 211.701 163.929C212.906 164.354 214.045 164.943 215.088 165.679C216.17 166.465 217.143 167.389 217.984 168.428C218.919 169.595 219.731 170.856 220.405 172.191C221.177 173.773 221.823 175.414 222.336 177.099C222.849 178.7 223.226 180.342 223.464 182.007C223.687 183.391 223.764 184.795 223.693 186.195H223.644Z" fill="url(#paint0_linear_85_5596)"/>
<defs>
<linearGradient id="paint0_linear_85_5596" x1="290.639" y1="94.8072" x2="88.1986" y2="297.248" gradientUnits="userSpaceOnUse">
<stop stop-color="#68C2C4"/>
<stop offset="1" stop-color="#239EDA"/>
</linearGradient>
</defs>
</svg>
